<?xml version="1.0" standalone="no"?>
<!DOCTYPE svg PUBLIC "-//W3C//DTD SVG 20010904//EN"
 "http://www.w3.org/TR/2001/REC-SVG-20010904/DTD/svg10.dtd">
<svg version="1.0" xmlns="http://www.w3.org/2000/svg"
 width="300.000000pt" height="300.000000pt" viewBox="0 0 300.000000 300.000000"
 preserveAspectRatio="xMidYMid meet">

<g transform="translate(0.000000,300.000000) scale(0.100000,-0.100000)"
fill="#000000" stroke="none">
<path d="M0 1500 l0 -1500 1500 0 1500 0 0 1500 0 1500 -1500 0 -1500 0 0
-1500z m1186 109 c23 -19 1 -30 -33 -17 -65 24 -119 -33 -88 -92 18 -36 55
-47 96 -30 36 15 49 6 26 -18 -12 -11 -33 -17 -63 -17 -38 0 -50 5 -70 29 -20
23 -24 37 -22 74 3 40 8 49 38 70 37 25 87 25 116 1z m179 -64 c48 -47 17
-110 -54 -110 -45 0 -66 16 -76 57 -5 21 -1 33 19 52 33 34 79 34 111 1z m124
-21 l40 -45 3 42 c2 23 9 44 16 47 15 5 17 -123 2 -133 -5 -3 -28 13 -50 37
l-40 43 0 -37 c0 -27 -4 -38 -15 -38 -12 0 -15 14 -15 65 0 36 4 65 9 65 5 0
27 -21 50 -46z m151 -5 l22 -51 23 51 c13 28 29 51 35 51 15 0 12 -14 -15 -75
-40 -87 -53 -80 -112 63 -3 6 2 12 10 12 8 0 24 -23 37 -51z m240 36 c0 -11
-11 -15 -41 -15 -28 0 -39 -4 -36 -12 2 -8 15 -12 30 -10 19 2 27 -1 27 -12 0
-8 -11 -16 -25 -18 -42 -5 -33 -23 13 -26 23 -2 42 -7 42 -12 0 -8 -98 -19
-106 -11 -2 2 -4 33 -4 68 l0 63 50 0 c38 0 50 -4 50 -15z m161 5 c20 -11 26
-45 9 -55 -15 -10 -12 -35 5 -35 8 0 15 -7 15 -15 0 -24 -37 -17 -58 12 -22
30 -52 26 -52 -7 0 -11 -6 -20 -13 -20 -10 0 -13 15 -11 58 1 31 2 60 3 65 1
11 79 9 102 -3z m167 -7 c2 -9 -8 -13 -32 -13 -20 0 -36 -4 -36 -10 0 -5 12
-10 28 -10 45 0 68 -28 51 -62 -19 -35 -109 -30 -109 6 0 11 6 12 29 3 30 -11
61 -5 61 13 0 5 -12 10 -26 10 -54 0 -82 38 -52 68 16 16 80 11 86 -5z m92
-54 c0 -46 -3 -59 -15 -59 -12 0 -15 13 -15 58 0 32 3 62 6 65 15 15 24 -8 24
-64z m158 54 c2 -9 -8 -13 -32 -13 -24 0 -36 -5 -36 -14 0 -9 8 -12 25 -8 18
3 25 0 25 -12 0 -10 -9 -16 -25 -16 -20 0 -25 -5 -25 -25 0 -16 -6 -25 -15
-25 -12 0 -15 13 -15 58 0 32 3 62 7 66 12 11 86 2 91 -11z m77 -9 l17 -27 22
28 c34 42 51 28 21 -17 -14 -20 -25 -48 -25 -62 0 -16 -6 -26 -15 -26 -10 0
-15 10 -15 27 0 14 -11 41 -25 59 -29 38 -30 44 -11 44 7 0 21 -12 31 -26z"/>
<path d="M1270 1520 c-15 -28 4 -60 35 -60 25 0 55 24 55 44 0 37 -72 50 -90
16z"/>
<path d="M1960 1524 c0 -11 5 -14 16 -10 9 3 24 6 35 6 10 0 19 5 19 10 0 6
-16 10 -35 10 -25 0 -35 -4 -35 -16z"/>
</g>
</svg>
